<?xml version="1.0" standalone="no"?>
<!DOCTYPE svg PUBLIC "-//W3C//DTD SVG 20010904//EN"
 "http://www.w3.org/TR/2001/REC-SVG-20010904/DTD/svg10.dtd">
<svg version="1.0" xmlns="http://www.w3.org/2000/svg"
 width="570.000000pt" height="428.000000pt" viewBox="0 0 570.000000 428.000000"
 preserveAspectRatio="xMidYMid meet">
<metadata>
Created by potrace 1.16, written by Peter Selinger 2001-2019
</metadata>
<g transform="translate(0.000000,428.000000) scale(0.100000,-0.100000)"
fill="#000000" stroke="none">
<path d="M1631 3815 c0 -5 -10 -84 -20 -174 -17 -142 -23 -165 -41 -178 -12
-8 -33 -26 -48 -39 l-27 -25 43 7 c41 6 43 5 40 -17 -2 -13 -18 -34 -37 -46
l-34 -23 28 0 29 0 -32 -33 -32 -33 25 -24 c33 -31 32 -44 -10 -77 -46 -37
-44 -45 6 -28 51 18 49 18 49 1 0 -25 -49 -74 -85 -86 -19 -6 -35 -15 -35 -20
0 -10 26 -20 53 -20 18 0 14 -8 -28 -50 -27 -27 -53 -50 -57 -50 -4 0 -12 9
-19 21 -10 19 -8 20 10 14 25 -8 26 -1 6 56 -11 30 -18 99 -22 214 -3 94 -9
176 -13 184 -4 8 -11 -53 -15 -135 -5 -119 -11 -156 -26 -182 -23 -40 -24 -46
-3 -38 9 3 -1 -15 -23 -41 -21 -27 -45 -57 -53 -67 -17 -22 -17 -22 53 21 47
29 52 7 6 -31 l-31 -26 27 0 c25 0 25 -1 11 -21 -8 -12 -25 -29 -38 -38 -16
-11 -23 -26 -23 -48 0 -36 2 -37 39 -23 14 5 26 6 26 1 0 -17 -50 -52 -111
-77 -35 -14 -66 -28 -69 -31 -3 -3 22 -2 55 2 l60 7 -36 -38 c-68 -75 -69 -80
-12 -50 60 30 73 32 73 12 0 -26 -47 -71 -99 -96 -56 -26 -65 -40 -25 -40 14
0 23 -4 20 -9 -3 -4 -116 -77 -250 -162 -135 -84 -243 -155 -242 -157 2 -1 87
6 189 18 241 26 247 26 247 -2 -1 -36 -37 -108 -81 -160 -22 -27 -36 -48 -30
-48 6 0 40 14 75 32 36 18 68 29 72 26 12 -13 -18 -78 -47 -103 -17 -14 -43
-25 -57 -25 -26 -1 -27 -1 -7 -16 14 -11 34 -14 65 -11 l45 5 -30 -24 c-16
-14 -49 -35 -72 -47 l-42 -22 19 -23 19 -23 43 22 43 21 -45 -47 c-25 -26 -58
-54 -75 -62 -29 -16 -29 -16 -7 -24 12 -5 29 -6 37 -3 8 4 15 1 15 -5 0 -11
-77 -71 -92 -71 -9 0 -48 59 -48 73 0 4 7 7 15 7 19 0 19 5 -1 36 -14 20 -15
30 -6 49 8 17 8 33 2 51 -6 14 -10 51 -11 82 l-1 57 -10 -45 c-6 -25 -18 -56
-27 -70 -34 -49 -35 -53 -11 -45 21 7 22 5 16 -21 -4 -16 -15 -37 -24 -47 -16
-18 -16 -20 0 -31 16 -12 16 -15 -3 -46 -16 -26 -17 -31 -5 -27 20 8 20 -2 0
-31 -14 -20 -14 -22 1 -22 20 0 15 -20 -8 -34 -29 -18 -45 20 -76 193 l-17 96
-8 -71 c-4 -39 -13 -80 -21 -90 -20 -27 -18 -36 5 -29 27 9 27 -24 -1 -59 -19
-24 -18 -31 4 -27 11 2 8 -13 -9 -37 -8 -12 -22 -22 -31 -22 -14 0 -14 -2 3
-15 19 -14 19 -15 -5 -56 -21 -38 -21 -41 -5 -35 111 43 444 126 504 126 53 0
26 -13 -66 -31 -126 -26 -243 -61 -400 -121 -139 -53 -139 -53 -91 -56 26 -2
47 -6 47 -10 0 -4 -20 -19 -43 -34 -24 -15 -52 -37 -63 -49 -19 -21 -19 -22 1
-16 30 9 314 57 333 56 9 0 1 -6 -18 -14 -70 -26 -193 -85 -188 -91 3 -2 124
4 269 15 412 31 485 35 474 23 -5 -6 -78 -40 -161 -75 -83 -36 -168 -74 -190
-85 l-39 -21 131 -1 c72 0 186 -3 253 -7 l122 -6 -22 -23 -22 -23 258 6 c202
5 257 4 251 -6 -5 -7 -20 -17 -34 -23 -18 -7 -22 -12 -12 -14 42 -10 930 -64
1040 -64 130 0 224 13 236 32 4 6 -11 26 -32 45 -44 39 -43 39 78 -11 84 -35
118 -38 118 -11 0 7 -11 38 -25 69 -14 31 -23 56 -21 56 2 0 53 -23 112 -51
109 -50 109 -51 183 -44 60 6 74 10 78 26 7 24 8 24 72 -11 30 -17 55 -30 57
-30 2 0 4 18 6 40 l3 39 70 -54 c39 -30 79 -55 91 -55 20 0 283 65 290 72 1 2
-10 25 -27 51 -16 26 -26 47 -22 47 5 0 42 -12 83 -25 41 -14 78 -25 83 -25 5
0 -14 19 -43 42 -29 23 -48 44 -42 46 6 2 57 -6 113 -17 56 -12 104 -21 107
-21 13 0 -58 65 -125 116 -40 31 -73 57 -73 59 0 2 39 -10 88 -26 157 -53 522
-161 534 -157 6 2 -15 21 -46 43 -31 21 -56 39 -56 40 0 1 22 -3 50 -9 92 -19
78 4 -54 87 l-61 38 40 -6 c56 -8 -208 103 -355 151 -155 49 -149 47 -122 51
28 5 247 -55 410 -113 68 -24 129 -44 136 -44 6 0 -24 32 -66 71 -43 39 -78
74 -78 78 0 4 26 -5 58 -20 31 -16 74 -31 96 -35 l39 -7 -39 36 -39 36 30 1
c27 1 25 3 -21 21 -27 10 -63 33 -80 50 l-29 30 28 -10 c34 -13 114 -14 121
-2 3 5 -9 12 -28 15 -46 9 -115 61 -131 99 -7 18 -12 33 -11 35 2 1 38 -16 81
-39 76 -41 85 -39 42 8 l-20 23 31 6 c33 7 44 24 17 24 -29 0 -92 38 -124 75
-35 41 -35 56 1 31 23 -16 88 -22 88 -8 0 4 -16 14 -35 21 -32 11 -75 53 -75
72 0 5 11 4 25 -1 24 -9 36 2 15 15 -18 11 -10 25 15 25 32 0 32 16 0 24 -23
6 -65 57 -65 79 0 5 15 -1 34 -12 52 -33 59 -25 21 25 -34 44 -46 72 -25 59
13 -8 13 7 -1 42 -6 15 -11 73 -11 128 l0 100 -13 -75 c-8 -41 -14 -88 -14
-105 -1 -16 -14 -58 -31 -92 -28 -61 -28 -77 -1 -50 11 10 12 7 6 -13 -4 -14
-12 -31 -17 -37 -8 -9 -6 -13 6 -13 9 0 16 -4 16 -8 0 -14 -75 -82 -90 -82
-24 0 -113 45 -148 75 -33 28 -68 83 -58 92 3 3 18 -4 34 -15 34 -25 132 -65
132 -54 0 4 -16 19 -35 35 -19 15 -40 37 -46 49 -11 20 -10 20 37 14 l49 -6
-51 24 c-50 23 -95 62 -116 100 -10 18 -7 19 31 13 22 -3 41 -1 41 4 0 5 26 9
58 10 116 2 116 -3 -2 149 -58 74 -106 138 -106 142 0 3 7 8 16 10 13 2 12 7
-8 29 -22 23 -22 26 -7 42 8 9 22 17 30 17 8 1 -1 9 -20 18 -21 10 -40 30 -48
50 l-13 32 51 -26 52 -26 -49 58 c-32 37 -41 53 -26 45 26 -14 27 -11 7 36
-11 27 -15 81 -16 227 l-1 191 -23 -191 c-18 -159 -26 -198 -46 -230 -16 -28
-18 -35 -6 -25 23 18 21 2 -3 -29 -23 -30 -25 -44 -5 -36 12 4 13 2 2 -14 -16
-26 -18 -25 -44 12 l-23 32 27 11 27 11 -46 17 c-25 10 -53 26 -63 37 -16 18
-15 19 16 36 l33 16 -30 16 c-28 16 -28 17 -6 20 l22 3 -25 44 c-28 47 -27 49
22 60 38 8 54 25 23 25 -12 0 -30 5 -41 10 -17 10 -19 23 -20 138 l-1 127 -19
-120 c-10 -66 -29 -145 -41 -175 -12 -29 -21 -62 -21 -72 2 -27 -10 -22 -37
15 -13 17 -116 144 -229 280 -152 185 -208 246 -220 242 -45 -17 -735 -245
-742 -245 -5 0 -9 25 -9 55 0 41 4 55 14 55 17 0 34 87 20 99 -5 4 -63 24
-129 45 l-120 38 -132 -42 -131 -42 -11 -43 c-14 -56 -14 -54 9 -48 19 5 20 1
19 -68 -1 -41 -4 -101 -8 -133 -5 -52 -9 -60 -31 -67 -14 -4 -146 -40 -295
-80 -196 -52 -283 -80 -318 -102 -43 -26 -50 -28 -77 -17 -27 11 -106 87 -98
95 2 2 28 -5 58 -15 51 -17 55 -18 59 -2 1 9 10 24 17 33 13 15 12 17 -13 24
-34 8 -89 48 -103 76 -11 20 -11 20 30 -1 61 -31 68 -20 21 34 -23 27 -40 50
-39 52 2 2 26 -3 53 -11 84 -26 83 -16 -5 41 -46 30 -86 56 -87 58 -2 2 1 14
5 27 7 17 5 31 -7 48 -17 27 -23 26 59 4 23 -6 21 -2 -16 39 -39 42 -62 84
-51 94 2 3 17 0 32 -6 15 -6 29 -9 31 -7 2 2 -10 20 -27 40 -30 36 -30 37 -38
204 -4 93 -9 164 -10 158z m2325 -736 c137 -166 356 -431 486 -588 217 -262
235 -286 212 -289 -14 -2 -32 -1 -40 2 -13 5 -582 713 -818 1018 -86 110 -101
126 -115 115 -9 -7 -174 -138 -366 -293 -519 -416 -765 -606 -800 -616 -29 -8
-973 -160 -1325 -213 -96 -15 -213 -32 -260 -40 -47 -7 -86 -12 -88 -10 -5 5
1003 606 1098 655 76 39 -30 -30 -300 -196 -168 -102 -309 -190 -315 -196 -5
-6 6 -2 25 9 122 72 531 303 536 303 3 0 2 -5 -2 -12 -4 -6 27 7 69 30 103 57
109 53 12 -9 -87 -55 -125 -86 -60 -49 116 66 145 81 145 77 0 -3 -47 -35
-105 -72 -58 -37 -105 -69 -105 -71 0 -5 61 29 130 71 47 30 127 70 115 58 -5
-6 -88 -58 -182 -117 -95 -59 -173 -110 -173 -113 0 -3 10 1 23 9 118 76 446
262 452 256 2 -1 -87 -59 -197 -127 -109 -69 -202 -129 -205 -135 -4 -5 9 0
28 11 42 25 359 206 452 257 37 20 67 33 67 29 -1 -4 -46 -42 -100 -83 -55
-41 -100 -76 -100 -78 0 -5 17 6 127 82 57 38 105 67 108 64 3 -3 -60 -56
-140 -118 -80 -62 -145 -115 -145 -117 0 -2 12 4 28 15 226 161 287 202 294
202 5 0 -27 -32 -72 -71 -44 -39 -80 -73 -80 -76 0 -6 17 6 88 65 29 25 56 42
59 38 3 -3 20 5 37 18 17 13 47 27 66 31 19 4 71 20 114 36 44 16 81 28 82 26
2 -2 -44 -45 -101 -96 -58 -51 -105 -95 -105 -97 0 -2 55 38 123 89 67 51 138
100 157 110 61 29 115 63 247 156 70 50 132 91 138 91 5 0 -15 -21 -45 -47
-30 -27 -68 -61 -85 -77 -24 -23 -21 -21 15 6 164 126 185 141 145 102 -22
-22 -65 -61 -95 -88 -66 -59 -53 -51 65 39 50 38 96 73 103 78 6 5 12 7 12 4
0 -3 -52 -49 -115 -102 -63 -54 -115 -99 -115 -101 0 -3 45 31 100 73 151 117
190 145 190 140 0 -3 -65 -60 -145 -127 -80 -67 -145 -124 -145 -126 0 -2 145
106 323 241 177 134 322 244 323 244 1 1 113 -135 250 -300z m-1116 217 c25
-9 33 -13 17 -11 -100 19 -119 19 -115 0 2 -13 18 -23 53 -31 l50 -13 -55 2
c-55 2 -55 2 -58 -30 -3 -30 -1 -32 40 -41 l43 -10 -42 -1 c-42 -1 -43 -2 -43
-36 0 -31 3 -35 28 -36 15 -1 38 -5 52 -9 16 -6 7 -7 -27 -3 l-53 6 0 -40 c0
-22 -3 -53 -6 -69 -5 -28 -7 -29 -57 -26 -29 2 -71 -3 -94 -11 -23 -8 -44 -13
-45 -12 -2 2 -1 84 2 182 l5 178 75 17 c84 19 163 17 230 -6z m535 -626 c444
-50 540 -62 544 -66 11 -11 -142 2 -604 52 -126 13 -234 24 -238 24 -5 0 -5 5
-2 10 8 14 5 14 300 -20z m43 -115 c643 -84 611 -79 635 -105 l22 -22 -90 6
c-169 11 -300 16 -290 11 6 -2 95 -14 200 -25 179 -20 236 -30 169 -30 -33 0
-371 39 -599 69 -82 11 -188 24 -235 30 -81 9 -78 9 55 6 l140 -4 -205 22
c-165 18 -194 23 -150 27 54 5 53 5 -49 19 l-104 14 24 18 c13 10 32 19 42 19
11 0 206 -25 435 -55z m-438 -110 c63 -8 248 -35 410 -60 162 -25 405 -62 539
-81 134 -18 246 -36 249 -39 16 -15 -345 18 -383 35 -25 12 -513 73 -529 66
-6 -2 4 -5 22 -5 17 -1 32 -5 32 -9 0 -10 -297 22 -351 38 -20 5 -49 11 -65
11 -28 2 -27 2 6 9 26 6 29 8 11 9 -13 0 -54 6 -90 13 -63 12 -64 12 -31 19
54 10 57 10 180 -6z m-20 -93 l21 -17 -21 -58 c-24 -63 -41 -77 -93 -77 -52 0
-64 55 -26 116 34 56 78 69 119 36z m801 -347 c-1 -154 -4 -328 -8 -387 -5
-96 -8 -108 -24 -108 -18 0 -19 16 -19 368 l0 369 -122 17 c-68 9 -138 19
-155 22 l-33 6 0 -173 c0 -96 -3 -272 -7 -391 -6 -203 -7 -218 -25 -218 -17 0
-18 18 -18 399 0 220 2 405 5 413 4 11 41 9 207 -12 l201 -25 -2 -280z m-567
239 l79 -7 -7 -120 c-3 -66 -6 -165 -6 -220 l0 -99 -72 6 c-40 3 -110 8 -155
12 -78 6 -83 7 -83 29 l0 24 130 -6 130 -6 -2 174 -3 174 -112 9 c-104 7 -113
10 -113 28 0 19 4 20 68 14 37 -3 103 -9 146 -12z m423 -37 c2 -3 -1 -126 -6
-273 -6 -148 -11 -304 -11 -346 l0 -78 -90 0 -90 0 0 83 c0 45 3 113 7 150 l6
68 66 -3 66 -3 6 -60 6 -60 1 71 2 71 -46 7 c-26 3 -62 6 -81 6 -23 0 -33 4
-31 13 3 8 31 13 81 15 l77 3 0 64 0 65 -35 0 c-34 0 -35 -1 -35 -37 0 -44 -9
-83 -19 -83 -4 0 -6 25 -3 56 5 61 -3 74 -46 74 -35 0 -21 25 14 25 l29 1 3
82 3 82 -31 0 c-27 0 -40 16 -25 32 6 5 174 -18 182 -25z m-1270 -183 c-3
-113 -7 -207 -9 -210 -3 -2 -84 -7 -181 -10 l-177 -7 6 149 c7 201 13 254 28
254 10 0 12 -38 8 -177 l-5 -176 138 6 c76 4 141 10 144 13 3 3 7 81 9 172 2
92 5 173 7 180 2 6 12 12 21 12 16 0 17 -18 11 -206z m1691 130 l42 -5 0 -190
0 -189 -63 0 c-35 0 -98 3 -140 6 l-77 7 0 194 0 193 98 -5 c53 -3 116 -8 140
-11z m-2230 -159 c-3 -91 -8 -169 -12 -172 -3 -4 -72 -9 -152 -11 l-146 -5 7
164 c4 90 9 166 11 168 2 2 10 1 19 -2 13 -5 15 -31 15 -158 l0 -151 108 7
c59 4 108 8 109 9 2 1 6 73 9 159 6 129 10 157 22 157 13 0 14 -24 10 -165z
m216 -234 c39 -6 125 -7 245 -1 102 5 224 9 271 8 l85 -1 -94 -8 c-125 -11
-135 -17 -31 -18 59 -1 80 -4 70 -11 -8 -5 -26 -10 -40 -11 -19 -1 -17 -3 10
-8 19 -4 -158 -6 -395 -5 l-430 2 305 -13 305 -13 -385 4 c-459 5 -577 11
-584 30 -8 20 4 45 25 52 28 11 576 4 643 -7z m1136 -9 c124 -7 125 -7 138
-35 7 -15 10 -37 7 -48 -7 -20 -12 -21 -79 -15 -39 3 -123 9 -186 13 l-115 8
90 6 90 5 -92 2 c-117 2 -125 21 -10 24 l82 2 -82 3 c-46 2 -83 6 -83 9 0 2 6
13 12 24 11 17 20 19 58 14 25 -3 101 -9 170 -12z m1040 -68 c12 -12 -2 -14
-100 -16 l-115 -1 125 -11 125 -11 -85 -3 c-47 -2 -145 0 -217 3 l-133 7 0 30
0 30 193 -7 c143 -5 196 -10 207 -21z m-1879 -51 l246 -6 11 -29 10 -28 -221
4 -222 5 230 -19 230 -19 -245 5 c-881 15 -920 13 -250 -16 151 -7 313 -16
360 -20 103 -10 -41 -6 -600 15 -206 8 -405 15 -441 15 -59 0 -67 2 -76 23 -8
17 -6 28 11 49 l21 27 345 0 c190 1 456 -2 591 -6z m643 -28 c22 -33 20 -51
-9 -113 -22 -48 -28 -53 -52 -50 -63 7 -64 110 -2 162 38 32 43 32 63 1z m262
-1 c57 -5 62 -7 67 -32 3 -15 9 -35 12 -44 7 -17 -4 -18 -141 -17 l-149 2 85
12 85 12 -89 2 c-98 1 -107 12 -18 22 l57 6 -62 2 c-35 0 -63 5 -63 10 0 5 -2
16 -5 24 -5 11 9 13 77 10 46 -2 111 -6 144 -9z m-908 -131 c241 -6 262 -10
262 -50 0 -13 -18 -15 -142 -10 -130 5 -134 5 -48 -4 158 -15 202 -20 198 -24
-1 -2 -158 3 -348 11 -479 19 -513 15 -115 -12 370 -25 277 -25 -310 1 -181 8
-361 15 -398 15 -76 0 -89 12 -62 54 l17 26 357 0 c196 0 461 -3 589 -7z
m1591 -37 l22 -23 -47 -7 c-26 -3 -116 -6 -201 -6 l-153 0 -10 24 c-7 20 -17
26 -52 29 -24 2 61 4 188 5 230 2 231 2 253 -22z m-2891 -84 c-98 -35 -108
-46 -33 -38 145 15 341 26 475 26 245 0 723 -47 924 -91 49 -10 91 -17 93 -15
2 2 -36 18 -84 36 -49 18 -92 36 -97 41 -13 12 111 -24 324 -93 102 -33 192
-63 200 -65 8 -3 -22 16 -67 42 -46 25 -83 48 -83 50 0 4 113 -37 209 -74 29
-12 55 -20 57 -18 2 2 -43 28 -100 58 -58 30 -103 56 -101 58 2 2 41 -10 87
-27 46 -16 99 -30 118 -30 19 -1 57 -8 85 -16 59 -18 68 -15 26 10 -40 24 -39
35 1 23 18 -5 44 -9 58 -8 20 0 14 5 -27 24 -99 45 -52 45 106 -1 47 -13 86
-22 88 -20 2 2 -20 15 -49 30 -63 30 -44 34 36 6 31 -10 64 -16 73 -13 12 5
14 3 8 -7 -5 -8 -4 -11 2 -7 27 17 255 -83 371 -161 97 -66 147 -122 110 -122
-7 0 -38 12 -68 26 -30 14 -89 42 -130 60 l-74 35 78 -74 c46 -44 77 -80 74
-88 -13 -36 -114 1 -368 135 -85 44 -159 83 -164 85 -4 2 15 -27 43 -64 66
-85 96 -144 82 -158 -7 -7 -58 6 -163 42 -84 28 -157 51 -161 51 -5 0 36 -33
90 -73 117 -87 133 -104 112 -118 -24 -15 -187 -10 -554 16 -346 25 -417 31
-485 41 -31 5 -32 7 -15 17 11 6 33 14 50 18 16 4 -95 7 -249 8 -255 1 -278 2
-272 18 11 27 -13 33 -154 33 -138 0 -180 5 -180 22 0 13 98 55 334 144 113
42 204 79 202 81 -2 2 -80 -3 -172 -11 -307 -28 -558 -46 -639 -46 -94 1 -90
6 50 57 51 19 75 31 55 29 -211 -30 -365 -47 -392 -44 l-33 3 42 25 c51 30 54
40 13 40 -16 0 -30 4 -30 9 0 16 283 110 330 110 8 0 -20 -13 -62 -27z m2976
-32 c14 -22 26 -43 26 -48 0 -5 -78 -12 -172 -15 l-173 -6 -48 47 -48 47 93 6
c51 3 139 6 194 7 l101 2 27 -40z m408 -5 c113 -20 204 -49 318 -101 100 -47
250 -133 250 -145 0 -3 -35 2 -77 12 -43 10 -82 18 -87 16 -5 -2 24 -20 63
-41 40 -21 70 -40 68 -42 -3 -3 -94 24 -203 60 -240 78 -459 146 -470 146 -4
0 33 -29 82 -64 132 -94 159 -131 76 -102 -55 20 -122 58 -204 119 -68 49 -83
65 -50 53 9 -4 4 5 -13 19 -23 20 -25 25 -10 21 11 -3 34 -8 50 -12 29 -6 29
-6 10 10 -20 17 -20 17 3 11 35 -10 26 3 -15 22 l-38 16 35 7 c59 12 124 11
212 -5z m-312 -127 c16 -22 30 -44 30 -48 0 -4 -73 -10 -162 -13 l-163 -7 -40
40 c-21 22 -36 42 -33 45 3 3 77 9 164 14 87 4 162 9 166 10 5 0 21 -18 38
-41z m135 -144 c20 -31 35 -58 33 -60 -2 -2 -73 -4 -158 -5 l-155 -1 -44 49
-44 48 29 3 c61 5 240 19 271 21 29 1 36 -5 68 -55z m74 -116 c24 -40 28 -37
-112 -64 l-98 -18 -42 42 -42 42 35 1 c19 0 71 6 115 13 120 20 121 20 144
-16z"/>
<path d="M3839 2033 c0 -54 -3 -119 -5 -145 -3 -25 -2 -48 3 -51 4 -3 52 -8
106 -12 l97 -7 0 150 0 149 -37 7 c-21 3 -66 6 -100 6 l-63 0 -1 -97z"/>
</g>
</svg>
