<?xml version="1.0" encoding="UTF-8"?>
<svg version="1.1" xmlns="http://www.w3.org/2000/svg" width="512" height="512">
<path d="M0 0 C1.17916992 0.00491455 2.35833984 0.0098291 3.57324219 0.01489258 C39.92353124 0.5015931 71.80151011 18.75391579 96.6875 44.3125 C97.49960937 45.09173828 97.49960937 45.09173828 98.328125 45.88671875 C102.62089201 50.03950423 106.23413475 54.44236953 109.6875 59.3125 C112.46115565 56.6361656 114.85713895 53.87876454 117.1875 50.8125 C138.21968078 24.44494983 170.44123503 4.49805946 204.28881836 0.51318359 C239.58353321 -2.43971774 274.99784712 5.99976551 302.77734375 28.796875 C303.73769531 29.62703125 304.69804687 30.4571875 305.6875 31.3125 C306.19039551 31.73466797 306.69329102 32.15683594 307.21142578 32.59179688 C333.67870401 54.87826731 349.08002252 87.05569202 353.375 121.0625 C357.81481245 178.68559771 333.67539515 233.13144938 299.6875 278.3125 C299.24164551 278.91143066 298.79579102 279.51036133 298.33642578 280.12744141 C289.35160144 292.18665778 279.49768979 303.47232036 269.28125 314.49609375 C266.81535427 317.17367029 264.40592369 319.89361745 262 322.625 C258.88688121 326.09374748 255.66793485 329.15092202 252.10546875 332.14453125 C248.71630197 335.18328337 245.56574432 338.44276946 242.375 341.6875 C237.23567093 346.89279923 232.03793028 351.68306819 226.2890625 356.2109375 C223.51665944 358.45050634 220.92093332 360.82197705 218.3125 363.25 C212.98163776 368.14476914 207.33605921 372.52994898 201.56396484 376.88183594 C199.51246174 378.44595358 197.48342914 380.03631184 195.45703125 381.6328125 C172.94319701 399.36233391 149.11357726 415.3374812 124.6875 430.3125 C123.01300781 431.34117187 123.01300781 431.34117187 121.3046875 432.390625 C112.48552132 437.53313607 112.48552132 437.53313607 106.6875 436.3125 C97.1674248 432.60279934 88.68458496 426.62847279 80.22021484 420.99609375 C77.45079522 419.15515316 74.67279969 417.32755619 71.89453125 415.5 C40.2275726 394.60518575 10.06748459 371.65266537 -17.72460938 345.78710938 C-19.40999563 344.22195978 -21.10316257 342.66550816 -22.796875 341.109375 C-29.76685141 334.68269455 -36.59639805 328.129372 -43.3125 321.4375 C-44.00625732 320.74833496 -44.70001465 320.05916992 -45.41479492 319.34912109 C-49.91735485 314.83297469 -54.15801888 310.14881869 -58.3125 305.3125 C-59.27374761 304.2178781 -60.23593702 303.12408227 -61.19921875 302.03125 C-68.6940463 293.45082805 -75.63169734 284.53871242 -82.3125 275.3125 C-82.7156543 274.75739746 -83.11880859 274.20229492 -83.53417969 273.63037109 C-116.96754388 227.299652 -140.63153414 170.0385422 -132.59448242 111.92602539 C-132.01173979 108.66787048 -131.22294773 105.49066527 -130.3125 102.3125 C-130.09207031 101.5169873 -129.87164062 100.72147461 -129.64453125 99.90185547 C-120.5405027 67.92335308 -101.06049668 38.78539932 -72.3125 21.3125 C-71.47404541 20.79550537 -71.47404541 20.79550537 -70.61865234 20.26806641 C-59.43987575 13.41960812 -47.85916773 8.14471061 -35.25 4.5625 C-34.55487305 4.36374268 -33.85974609 4.16498535 -33.14355469 3.96020508 C-22.21314601 1.01827575 -11.2953107 -0.05626454 0 0 Z M-78.63623047 61.14794922 C-98.39778236 81.92136966 -108.17819576 110.77838721 -107.49609375 139.1640625 C-106.47482038 165.9201562 -98.80129148 191.26148215 -87.3125 215.3125 C-86.95591309 216.05983398 -86.59932617 216.80716797 -86.23193359 217.57714844 C-76.90968529 236.80350629 -64.7601415 254.73419064 -51.3125 271.3125 C-50.59191406 272.22386719 -49.87132812 273.13523437 -49.12890625 274.07421875 C-43.65574692 280.9132289 -37.78111466 287.32088082 -31.80029297 293.71142578 C-29.50697768 296.17935517 -27.25832511 298.68757102 -25 301.1875 C-16.54871027 310.41042923 -7.81951745 319.5742574 1.74609375 327.65234375 C4.22194997 329.76952462 6.60411268 331.98031829 9 334.1875 C13.43381311 338.22652153 17.96804584 342.08756878 22.63671875 345.8515625 C24.86038674 347.64530236 27.06948478 349.45122383 29.26953125 351.2734375 C39.45934173 359.68481328 49.97119926 367.58595711 60.6875 375.3125 C61.40550781 375.83199219 62.12351563 376.35148437 62.86328125 376.88671875 C72.7514764 384.02309707 82.85040375 390.79370386 93.12109375 397.3671875 C95.85678105 399.11834188 98.56064436 400.89667005 101.22265625 402.7578125 C102.65931641 403.74394531 102.65931641 403.74394531 104.125 404.75 C104.90746094 405.30558594 105.68992188 405.86117188 106.49609375 406.43359375 C108.6696553 407.55071429 108.6696553 407.55071429 110.98046875 406.76171875 C114.57549011 404.83711136 118.08610168 402.81906487 121.5625 400.6875 C122.33916016 400.2116748 123.11582031 399.73584961 123.91601562 399.24560547 C134.46108218 392.69331097 144.57163529 385.50230294 154.6875 378.3125 C155.95037842 377.41748779 155.95037842 377.41748779 157.23876953 376.50439453 C170.83337718 366.85192154 183.94388726 356.75513191 196.61328125 345.91796875 C199.38449155 343.55385813 202.21677189 341.27406042 205.0625 339 C215.17019209 330.77177628 224.57092748 321.61639935 233.6875 312.3125 C236.55921992 309.42566577 239.45158981 306.56133706 242.359375 303.7109375 C249.1205094 297.0571358 255.70910363 290.4621551 261.56640625 282.98828125 C263.49541974 280.55481119 265.50818472 278.22086788 267.55932617 275.89038086 C274.46891652 267.97954252 280.32241386 259.42884473 286.11621094 250.68066406 C287.58777135 248.46280576 289.07704183 246.25795832 290.5703125 244.0546875 C306.9990934 219.56519166 318.29980743 193.09475936 324.6875 164.3125 C324.95433594 163.13429687 325.22117187 161.95609375 325.49609375 160.7421875 C330.90020179 131.00095841 325.88803437 99.36479039 308.625 74.3203125 C291.95731568 51.57586827 271.17524227 36.33851484 243.6875 29.3125 C242.84703125 29.08046875 242.0065625 28.8484375 241.140625 28.609375 C215.41060554 22.39868065 189.7863141 28.59484318 167.5 41.90625 C148.00160469 53.98976259 132.4414965 70.32088323 123.51245117 91.57714844 C121.28336139 96.7186986 118.83596075 99.73826963 113.6875 102.3125 C109.12269795 102.69290017 106.85540118 102.88046238 102.69140625 100.85546875 C98.72859745 97.50073724 97.34217815 94.03105678 95.375 89.3125 C91.67752207 81.01282536 87.60674947 74.2629776 81.6875 67.3125 C80.60855469 66.00925781 80.60855469 66.00925781 79.5078125 64.6796875 C60.78219703 42.88866878 33.23347263 28.72841751 4.6875 26.3125 C-27.61996011 25.50389463 -56.12079146 38.47125371 -78.63623047 61.14794922 Z " fill="#000000" transform="translate(133.3125,50.6875)"/>
</svg>
